<svg width="398" height="56" viewBox="0 0 398 56" fill="none" xmlns="http://www.w3.org/2000/svg">
<rect width="398" height="56" rx="28" fill="#FCC434"/>
<path d="M161.637 35.832C160.27 35.832 159.088 35.5358 158.092 34.9434C157.102 34.3444 156.337 33.4948 155.797 32.3945C155.263 31.2943 154.996 29.9824 154.996 28.459V28.4395C154.996 26.916 155.263 25.6042 155.797 24.5039C156.337 23.4036 157.102 22.5573 158.092 21.9648C159.088 21.3724 160.266 21.0762 161.627 21.0762C162.753 21.0762 163.759 21.2975 164.645 21.7402C165.536 22.1764 166.256 22.7786 166.803 23.5469C167.35 24.3151 167.665 25.194 167.75 26.1836L167.76 26.3008H164.889L164.869 26.2129C164.771 25.6855 164.573 25.2266 164.273 24.8359C163.98 24.4388 163.609 24.1296 163.16 23.9082C162.711 23.6868 162.2 23.5762 161.627 23.5762C160.891 23.5762 160.25 23.7747 159.703 24.1719C159.163 24.5625 158.746 25.1224 158.453 25.8516C158.16 26.5742 158.014 27.4368 158.014 28.4395V28.459C158.014 29.4551 158.16 30.321 158.453 31.0566C158.746 31.7858 159.163 32.349 159.703 32.7461C160.25 33.1367 160.895 33.332 161.637 33.332C162.203 33.332 162.711 33.2311 163.16 33.0293C163.609 32.821 163.98 32.528 164.273 32.1504C164.566 31.7728 164.768 31.3268 164.879 30.8125L164.898 30.7246H167.77L167.76 30.832C167.662 31.8216 167.34 32.6908 166.793 33.4395C166.253 34.1882 165.54 34.7741 164.654 35.1973C163.775 35.6204 162.77 35.832 161.637 35.832ZM174.771 35.7246C173.684 35.7246 172.743 35.5033 171.949 35.0605C171.161 34.6178 170.556 33.9798 170.133 33.1465C169.71 32.3132 169.498 31.3171 169.498 30.1582V30.1387C169.498 28.9928 169.713 28.0065 170.143 27.1797C170.572 26.3464 171.181 25.7083 171.969 25.2656C172.757 24.8164 173.691 24.5918 174.771 24.5918C175.859 24.5918 176.796 24.8164 177.584 25.2656C178.372 25.7083 178.977 26.3431 179.4 27.1699C179.83 27.9967 180.045 28.9863 180.045 30.1387V30.1582C180.045 31.3171 179.833 32.3132 179.41 33.1465C178.987 33.9798 178.382 34.6178 177.594 35.0605C176.806 35.5033 175.865 35.7246 174.771 35.7246ZM174.771 33.4883C175.273 33.4883 175.696 33.3581 176.041 33.0977C176.393 32.8307 176.663 32.4499 176.852 31.9551C177.04 31.4603 177.135 30.8646 177.135 30.168V30.1484C177.135 29.4518 177.04 28.8561 176.852 28.3613C176.663 27.8665 176.393 27.4889 176.041 27.2285C175.689 26.9616 175.266 26.8281 174.771 26.8281C174.283 26.8281 173.863 26.9616 173.512 27.2285C173.16 27.4889 172.89 27.8665 172.701 28.3613C172.512 28.8561 172.418 29.4518 172.418 30.1484V30.168C172.418 30.8646 172.509 31.4635 172.691 31.9648C172.88 32.4596 173.15 32.8372 173.502 33.0977C173.854 33.3581 174.277 33.4883 174.771 33.4883ZM182.164 35.5V24.8164H185.016V26.4863H185.162C185.416 25.9004 185.803 25.4382 186.324 25.0996C186.852 24.7611 187.503 24.5918 188.277 24.5918C189.462 24.5918 190.367 24.9401 190.992 25.6367C191.624 26.3333 191.939 27.3197 191.939 28.5957V35.5H189.088V29.2305C189.088 28.4883 188.925 27.9251 188.6 27.541C188.281 27.1504 187.789 26.9551 187.125 26.9551C186.689 26.9551 186.311 27.0527 185.992 27.248C185.68 27.4434 185.439 27.7201 185.27 28.0781C185.1 28.4297 185.016 28.8464 185.016 29.3281V35.5H182.164ZM198.863 35.5781C197.587 35.5781 196.663 35.347 196.09 34.8848C195.523 34.4225 195.24 33.6608 195.24 32.5996V26.9648H193.639V24.8164H195.24V22.248H198.121V24.8164H200.27V26.9648H198.121V32.0234C198.121 32.5052 198.232 32.8535 198.453 33.0684C198.674 33.2832 199.02 33.3906 199.488 33.3906C199.658 33.3906 199.798 33.3874 199.908 33.3809C200.025 33.3743 200.146 33.3646 200.27 33.3516V35.4609C200.1 35.4935 199.892 35.5195 199.645 35.5391C199.404 35.5651 199.143 35.5781 198.863 35.5781ZM202.486 35.5V24.8164H205.338V35.5H202.486ZM203.912 23.2344C203.482 23.2344 203.111 23.0814 202.799 22.7754C202.486 22.4694 202.33 22.1048 202.33 21.6816C202.33 21.2454 202.486 20.8776 202.799 20.5781C203.111 20.2721 203.482 20.1191 203.912 20.1191C204.355 20.1191 204.729 20.2721 205.035 20.5781C205.348 20.8776 205.504 21.2454 205.504 21.6816C205.504 22.1048 205.348 22.4694 205.035 22.7754C204.729 23.0814 204.355 23.2344 203.912 23.2344ZM207.984 35.5V24.8164H210.836V26.4863H210.982C211.236 25.9004 211.624 25.4382 212.145 25.0996C212.672 24.7611 213.323 24.5918 214.098 24.5918C215.283 24.5918 216.188 24.9401 216.812 25.6367C217.444 26.3333 217.76 27.3197 217.76 28.5957V35.5H214.908V29.2305C214.908 28.4883 214.745 27.9251 214.42 27.541C214.101 27.1504 213.609 26.9551 212.945 26.9551C212.509 26.9551 212.132 27.0527 211.812 27.248C211.5 27.4434 211.259 27.7201 211.09 28.0781C210.921 28.4297 210.836 28.8464 210.836 29.3281V35.5H207.984ZM223.844 35.7246C223.049 35.7246 222.382 35.5684 221.842 35.2559C221.301 34.9434 220.891 34.4876 220.611 33.8887C220.338 33.2897 220.201 32.5671 220.201 31.7207V24.8164H223.053V31.0859C223.053 31.8281 223.206 32.3945 223.512 32.7852C223.818 33.1693 224.306 33.3613 224.977 33.3613C225.322 33.3613 225.628 33.306 225.895 33.1953C226.161 33.0781 226.386 32.9154 226.568 32.707C226.751 32.4987 226.887 32.2513 226.979 31.9648C227.076 31.6719 227.125 31.3464 227.125 30.9883V24.8164H229.977V35.5H227.125V33.8301H226.979C226.809 34.2207 226.578 34.5592 226.285 34.8457C225.992 35.1257 225.641 35.3438 225.23 35.5C224.82 35.6497 224.358 35.7246 223.844 35.7246ZM237.33 35.7246C236.243 35.7246 235.309 35.5 234.527 35.0508C233.746 34.6016 233.144 33.9635 232.721 33.1367C232.304 32.3034 232.096 31.3171 232.096 30.1777V30.168C232.096 29.0352 232.304 28.0521 232.721 27.2188C233.144 26.3789 233.736 25.7311 234.498 25.2754C235.266 24.8197 236.171 24.5918 237.213 24.5918C238.255 24.5918 239.153 24.8132 239.908 25.2559C240.663 25.6986 241.246 26.3236 241.656 27.1309C242.066 27.9316 242.271 28.8724 242.271 29.9531V30.832H233.512V29.0449H240.914L239.566 30.7344V29.6016C239.566 28.9701 239.469 28.4395 239.273 28.0098C239.078 27.5801 238.808 27.2578 238.463 27.043C238.118 26.8281 237.717 26.7207 237.262 26.7207C236.806 26.7207 236.402 26.8314 236.051 27.0527C235.699 27.2741 235.423 27.5996 235.221 28.0293C235.019 28.459 234.918 28.9831 234.918 29.6016V30.7441C234.918 31.3431 235.016 31.8542 235.211 32.2773C235.413 32.7005 235.699 33.026 236.07 33.2539C236.441 33.4818 236.881 33.5957 237.389 33.5957C237.799 33.5957 238.147 33.5339 238.434 33.4102C238.727 33.2865 238.964 33.14 239.146 32.9707C239.329 32.7949 239.452 32.6322 239.518 32.4824L239.537 32.4238H242.184L242.164 32.5312C242.079 32.8763 241.926 33.2376 241.705 33.6152C241.484 33.9863 241.178 34.3314 240.787 34.6504C240.403 34.9694 239.924 35.2298 239.352 35.4316C238.779 35.627 238.105 35.7246 237.33 35.7246Z" fill="black"/>
</svg>
