<svg width="398" height="56" viewBox="0 0 398 56" fill="none" xmlns="http://www.w3.org/2000/svg">
<rect width="398" height="56" rx="28" fill="#1A1A1A"/>
<path d="M159.391 29.3952L160.03 25.0875H156.01V22.2887C156.01 21.1085 156.575 19.9621 158.368 19.9621H160.194V16.295C160.194 16.295 158.54 16 156.952 16C153.644 16 151.483 18.0653 151.483 21.7998V25.0875H147.807V29.3952H151.483V39.8145C152.219 39.9326 152.973 40 153.742 40C154.512 40 155.265 39.941 156.002 39.8145V29.3952H159.391Z" fill="#337FFF"/>
<path d="M173.795 33.5V22.2266H181.178V24.1719H176.154V27.1953H180.74V29.0625H176.154V33.5H173.795ZM185.084 33.6328C184.542 33.6328 184.058 33.5286 183.631 33.3203C183.209 33.1068 182.878 32.8073 182.639 32.4219C182.399 32.0312 182.279 31.5755 182.279 31.0547V31.0391C182.279 30.5234 182.407 30.0807 182.662 29.7109C182.923 29.3411 183.3 29.0521 183.795 28.8438C184.295 28.6302 184.902 28.5026 185.615 28.4609L188.818 28.2656V29.6562L185.959 29.8438C185.469 29.8698 185.105 29.974 184.865 30.1562C184.626 30.3385 184.506 30.5859 184.506 30.8984V30.9141C184.506 31.2422 184.631 31.5 184.881 31.6875C185.131 31.875 185.454 31.9688 185.85 31.9688C186.204 31.9688 186.519 31.8984 186.795 31.7578C187.071 31.6172 187.29 31.4271 187.451 31.1875C187.613 30.9427 187.693 30.6693 187.693 30.3672V27.625C187.693 27.25 187.568 26.9635 187.318 26.7656C187.074 26.5625 186.717 26.4609 186.248 26.4609C185.837 26.4609 185.501 26.5312 185.24 26.6719C184.985 26.8073 184.813 27.0026 184.725 27.2578L184.709 27.2891H182.6L182.607 27.2188C182.67 26.7135 182.86 26.2734 183.178 25.8984C183.501 25.5234 183.933 25.2318 184.475 25.0234C185.021 24.8151 185.654 24.7109 186.373 24.7109C187.133 24.7109 187.779 24.8281 188.311 25.0625C188.842 25.2917 189.245 25.625 189.521 26.0625C189.803 26.4948 189.943 27.0156 189.943 27.625V33.5H187.693V32.3594H187.553C187.407 32.625 187.212 32.8542 186.967 33.0469C186.727 33.2344 186.446 33.3802 186.123 33.4844C185.805 33.5833 185.459 33.6328 185.084 33.6328ZM195.967 33.6797C195.071 33.6797 194.308 33.5052 193.678 33.1562C193.053 32.8021 192.576 32.2917 192.248 31.625C191.92 30.9531 191.756 30.1406 191.756 29.1875V29.1719C191.756 28.224 191.92 27.4193 192.248 26.7578C192.576 26.0964 193.053 25.5911 193.678 25.2422C194.308 24.888 195.071 24.7109 195.967 24.7109C196.727 24.7109 197.381 24.8411 197.928 25.1016C198.475 25.362 198.907 25.7292 199.225 26.2031C199.542 26.6771 199.735 27.2344 199.803 27.875V27.8984H197.686L197.678 27.8828C197.6 27.4661 197.417 27.1328 197.131 26.8828C196.85 26.6276 196.464 26.5 195.975 26.5C195.568 26.5 195.222 26.6042 194.936 26.8125C194.654 27.0156 194.441 27.3151 194.295 27.7109C194.149 28.1068 194.076 28.5938 194.076 29.1719V29.1875C194.076 29.7656 194.149 30.2578 194.295 30.6641C194.446 31.0651 194.662 31.3698 194.943 31.5781C195.225 31.7865 195.568 31.8906 195.975 31.8906C196.443 31.8906 196.818 31.7812 197.1 31.5625C197.381 31.3438 197.571 31.0156 197.67 30.5781L197.686 30.5547L199.795 30.5469V30.6016C199.712 31.2214 199.511 31.763 199.193 32.2266C198.876 32.6901 198.446 33.0495 197.904 33.3047C197.363 33.5547 196.717 33.6797 195.967 33.6797ZM205.365 33.6797C204.495 33.6797 203.745 33.5 203.115 33.1406C202.49 32.776 202.008 32.2604 201.67 31.5938C201.331 30.9271 201.162 30.1328 201.162 29.2109V29.2031C201.162 28.2917 201.329 27.5 201.662 26.8281C202.001 26.1562 202.477 25.6354 203.092 25.2656C203.712 24.8958 204.438 24.7109 205.271 24.7109C206.11 24.7109 206.834 24.8906 207.443 25.25C208.053 25.6094 208.521 26.112 208.85 26.7578C209.178 27.4036 209.342 28.1615 209.342 29.0312V29.7422H202.303V28.3125H208.248L207.178 29.6641V28.75C207.178 28.2344 207.097 27.8047 206.936 27.4609C206.779 27.1172 206.561 26.8594 206.279 26.6875C206.003 26.5104 205.68 26.4219 205.311 26.4219C204.946 26.4219 204.62 26.513 204.334 26.6953C204.053 26.8724 203.829 27.1354 203.662 27.4844C203.501 27.8281 203.42 28.25 203.42 28.75V29.6719C203.42 30.1562 203.501 30.5703 203.662 30.9141C203.824 31.2578 204.053 31.5208 204.35 31.7031C204.646 31.8854 205.001 31.9766 205.412 31.9766C205.745 31.9766 206.029 31.9271 206.264 31.8281C206.498 31.7292 206.686 31.6146 206.826 31.4844C206.972 31.349 207.071 31.2266 207.123 31.1172L207.146 31.0703H209.271L209.256 31.1484C209.188 31.4193 209.066 31.7031 208.889 32C208.712 32.2917 208.467 32.5651 208.154 32.8203C207.847 33.0755 207.462 33.2839 206.998 33.4453C206.54 33.6016 205.995 33.6797 205.365 33.6797ZM216.287 33.6328C215.881 33.6328 215.511 33.5755 215.178 33.4609C214.844 33.3411 214.553 33.1719 214.303 32.9531C214.058 32.7344 213.86 32.4714 213.709 32.1641H213.568V33.5H211.287V21.6094H213.568V26.2734H213.709C213.855 25.9557 214.053 25.6849 214.303 25.4609C214.558 25.237 214.852 25.0651 215.186 24.9453C215.524 24.8203 215.891 24.7578 216.287 24.7578C217.011 24.7578 217.633 24.9349 218.154 25.2891C218.675 25.6432 219.076 26.151 219.357 26.8125C219.639 27.474 219.779 28.2656 219.779 29.1875V29.2031C219.779 30.1198 219.636 30.9089 219.35 31.5703C219.068 32.2318 218.667 32.7422 218.146 33.1016C217.626 33.4557 217.006 33.6328 216.287 33.6328ZM215.506 31.7422C215.912 31.7422 216.258 31.6406 216.545 31.4375C216.837 31.2344 217.061 30.9427 217.217 30.5625C217.378 30.1823 217.459 29.7292 217.459 29.2031V29.1875C217.459 28.6615 217.378 28.2109 217.217 27.8359C217.061 27.4557 216.837 27.1641 216.545 26.9609C216.258 26.7526 215.912 26.6484 215.506 26.6484C215.11 26.6484 214.764 26.7526 214.467 26.9609C214.175 27.1641 213.949 27.4557 213.787 27.8359C213.626 28.2109 213.545 28.6641 213.545 29.1953V29.2109C213.545 29.7318 213.623 30.1823 213.779 30.5625C213.941 30.9427 214.167 31.2344 214.459 31.4375C214.756 31.6406 215.105 31.7422 215.506 31.7422ZM225.451 33.6797C224.571 33.6797 223.813 33.5026 223.178 33.1484C222.542 32.7891 222.055 32.276 221.717 31.6094C221.378 30.9375 221.209 30.1354 221.209 29.2031V29.1875C221.209 28.2604 221.381 27.4635 221.725 26.7969C222.068 26.1302 222.555 25.6172 223.186 25.2578C223.821 24.8932 224.576 24.7109 225.451 24.7109C226.326 24.7109 227.079 24.8906 227.709 25.25C228.344 25.6094 228.834 26.125 229.178 26.7969C229.521 27.4635 229.693 28.2604 229.693 29.1875V29.2031C229.693 30.1354 229.524 30.9375 229.186 31.6094C228.847 32.276 228.36 32.7891 227.725 33.1484C227.094 33.5026 226.337 33.6797 225.451 33.6797ZM225.451 31.8906C225.857 31.8906 226.201 31.7839 226.482 31.5703C226.764 31.3568 226.98 31.0495 227.131 30.6484C227.282 30.2474 227.357 29.7656 227.357 29.2031V29.1875C227.357 28.625 227.282 28.1458 227.131 27.75C226.98 27.349 226.761 27.0417 226.475 26.8281C226.193 26.6094 225.852 26.5 225.451 26.5C225.05 26.5 224.706 26.6094 224.42 26.8281C224.139 27.0417 223.923 27.349 223.771 27.75C223.62 28.1458 223.545 28.625 223.545 29.1875V29.2031C223.545 29.7708 223.618 30.2552 223.764 30.6562C223.915 31.0573 224.131 31.3646 224.412 31.5781C224.699 31.7865 225.045 31.8906 225.451 31.8906ZM235.373 33.6797C234.493 33.6797 233.735 33.5026 233.1 33.1484C232.464 32.7891 231.977 32.276 231.639 31.6094C231.3 30.9375 231.131 30.1354 231.131 29.2031V29.1875C231.131 28.2604 231.303 27.4635 231.646 26.7969C231.99 26.1302 232.477 25.6172 233.107 25.2578C233.743 24.8932 234.498 24.7109 235.373 24.7109C236.248 24.7109 237.001 24.8906 237.631 25.25C238.266 25.6094 238.756 26.125 239.1 26.7969C239.443 27.4635 239.615 28.2604 239.615 29.1875V29.2031C239.615 30.1354 239.446 30.9375 239.107 31.6094C238.769 32.276 238.282 32.7891 237.646 33.1484C237.016 33.5026 236.258 33.6797 235.373 33.6797ZM235.373 31.8906C235.779 31.8906 236.123 31.7839 236.404 31.5703C236.686 31.3568 236.902 31.0495 237.053 30.6484C237.204 30.2474 237.279 29.7656 237.279 29.2031V29.1875C237.279 28.625 237.204 28.1458 237.053 27.75C236.902 27.349 236.683 27.0417 236.396 26.8281C236.115 26.6094 235.774 26.5 235.373 26.5C234.972 26.5 234.628 26.6094 234.342 26.8281C234.061 27.0417 233.844 27.349 233.693 27.75C233.542 28.1458 233.467 28.625 233.467 29.1875V29.2031C233.467 29.7708 233.54 30.2552 233.686 30.6562C233.837 31.0573 234.053 31.3646 234.334 31.5781C234.62 31.7865 234.967 31.8906 235.373 31.8906ZM241.553 33.5V21.6094H243.834V33.5H241.553ZM246.967 33.5L244.326 29.7656L246.029 28.3984L249.662 33.5H246.967ZM243.678 30.7812L243.6 28.2969H243.975L246.85 24.8984H249.436L245.896 28.8047L244.678 29.7188L243.678 30.7812Z" fill="#F2F2F2"/>
</svg>
