<svg width="398" height="56" viewBox="0 0 398 56" fill="none" xmlns="http://www.w3.org/2000/svg">
<rect width="398" height="56" rx="28" fill="#1A1A1A"/>
<path d="M155.601 23.4275C155.786 22.9909 156.038 22.5925 156.308 22.2065C157.735 20.1597 159.646 18.7872 162.047 18.1239C163.602 17.6941 165.178 17.6559 166.761 17.9713C168.535 18.325 170.086 19.1245 171.427 20.3391C171.515 20.419 171.513 20.4597 171.432 20.5405C170.539 21.431 169.648 22.3243 168.761 23.2203C168.679 23.3033 168.635 23.2943 168.553 23.221C167.339 22.1319 165.906 21.6419 164.297 21.7933C161.68 22.039 159.944 23.4809 158.979 25.902C158.966 25.935 158.949 25.9668 158.934 25.9992C158.656 25.783 158.378 25.5669 158.1 25.3507C157.483 24.8709 156.869 24.3874 156.248 23.9138C156.033 23.7501 155.838 23.5598 155.601 23.4275Z" fill="#D32B1D"/>
<path d="M171.46 35.7603C171.013 36.195 170.512 36.5574 169.978 36.874C168.714 37.6224 167.343 38.0313 165.887 38.1768C164.364 38.3294 162.871 38.1962 161.422 37.6902C159.039 36.8571 157.202 35.3455 155.909 33.1701C155.795 32.9771 155.672 32.7878 155.599 32.5726C155.63 32.5553 155.664 32.542 155.692 32.5208C156.133 32.1813 156.574 31.8418 157.013 31.4998C157.654 31.0009 158.293 30.4998 158.933 29.9997C159.13 30.5183 159.356 31.0228 159.672 31.4819C160.716 33.003 162.135 33.9496 163.97 34.1812C165.447 34.3678 166.854 34.1035 168.134 33.2947C168.173 33.27 168.215 33.2506 168.255 33.2284C168.402 33.4181 168.613 33.5284 168.798 33.6721C169.687 34.3665 170.573 35.064 171.46 35.7603Z" fill="#4DA349"/>
<path d="M171.46 35.7603C170.573 35.064 169.687 34.3666 168.798 33.6725C168.613 33.5285 168.402 33.4184 168.255 33.2287C168.611 32.9515 168.956 32.6632 169.243 32.3105C169.742 31.6984 170.069 31.0068 170.237 30.235C170.268 30.0938 170.222 30.0694 170.097 30.0703C169.482 30.0743 168.868 30.0719 168.254 30.0719C167.128 30.0719 166.001 30.0697 164.875 30.075C164.744 30.0756 164.701 30.0463 164.701 29.9066C164.707 28.6843 164.706 27.4617 164.701 26.2394C164.701 26.1056 164.745 26.0803 164.867 26.0803C167.959 26.0834 171.052 26.0849 174.144 26.0778C174.323 26.0775 174.326 26.1765 174.344 26.2906C174.523 27.4228 174.55 28.5576 174.414 29.6969C174.264 30.9578 173.923 32.1597 173.34 33.2901C172.876 34.1923 172.278 34.9944 171.543 35.6928C171.517 35.7174 171.488 35.7378 171.46 35.7603Z" fill="#4B7BEF"/>
<path d="M158.933 29.9996C158.293 30.4998 157.654 31.0009 157.013 31.4998C156.574 31.8417 156.133 32.1812 155.692 32.5207C155.664 32.5423 155.63 32.5556 155.599 32.5725C155.382 32.233 155.25 31.8547 155.113 31.48C154.565 29.9694 154.386 28.412 154.57 26.8166C154.703 25.6667 155.022 24.5671 155.532 23.5265C155.55 23.4901 155.559 23.4481 155.6 23.4275C155.838 23.5598 156.033 23.7503 156.247 23.9138C156.869 24.3877 157.482 24.8712 158.099 25.3507C158.377 25.5668 158.656 25.783 158.934 25.9991C158.814 26.4438 158.695 26.8878 158.649 27.3482C158.563 28.189 158.64 29.0129 158.888 29.8211C158.906 29.8797 158.918 29.9401 158.933 29.9996Z" fill="#E7B101"/>
<path d="M192.93 33.7891C192.091 33.7891 191.339 33.6536 190.672 33.3828C190.005 33.1068 189.438 32.7135 188.969 32.2031C188.505 31.6875 188.148 31.0651 187.898 30.3359C187.648 29.6016 187.523 28.776 187.523 27.8594V27.8438C187.523 26.6354 187.742 25.5911 188.18 24.7109C188.617 23.8255 189.237 23.1432 190.039 22.6641C190.841 22.1797 191.786 21.9375 192.875 21.9375C193.766 21.9375 194.562 22.0964 195.266 22.4141C195.969 22.7318 196.542 23.1745 196.984 23.7422C197.432 24.3099 197.711 24.9688 197.82 25.7188L197.836 25.7969H195.492L195.477 25.7188C195.32 25.1562 195.013 24.7188 194.555 24.4062C194.096 24.0938 193.536 23.9375 192.875 23.9375C192.271 23.9375 191.747 24.0964 191.305 24.4141C190.867 24.7266 190.529 25.1745 190.289 25.7578C190.049 26.3359 189.93 27.0234 189.93 27.8203V27.8359C189.93 28.4453 190 28.9948 190.141 29.4844C190.281 29.9688 190.484 30.3828 190.75 30.7266C191.016 31.0703 191.336 31.3333 191.711 31.5156C192.086 31.6979 192.505 31.7891 192.969 31.7891C193.484 31.7891 193.94 31.6901 194.336 31.4922C194.732 31.2943 195.042 31.0182 195.266 30.6641C195.49 30.3099 195.609 29.8958 195.625 29.4219L195.633 29.2109H193.195V27.4922H197.93V28.9219C197.93 29.6667 197.815 30.3385 197.586 30.9375C197.357 31.5365 197.023 32.0495 196.586 32.4766C196.148 32.8984 195.62 33.224 195 33.4531C194.385 33.6771 193.695 33.7891 192.93 33.7891ZM203.789 33.6797C202.909 33.6797 202.151 33.5026 201.516 33.1484C200.88 32.7891 200.393 32.276 200.055 31.6094C199.716 30.9375 199.547 30.1354 199.547 29.2031V29.1875C199.547 28.2604 199.719 27.4635 200.062 26.7969C200.406 26.1302 200.893 25.6172 201.523 25.2578C202.159 24.8932 202.914 24.7109 203.789 24.7109C204.664 24.7109 205.417 24.8906 206.047 25.25C206.682 25.6094 207.172 26.125 207.516 26.7969C207.859 27.4635 208.031 28.2604 208.031 29.1875V29.2031C208.031 30.1354 207.862 30.9375 207.523 31.6094C207.185 32.276 206.698 32.7891 206.062 33.1484C205.432 33.5026 204.674 33.6797 203.789 33.6797ZM203.789 31.8906C204.195 31.8906 204.539 31.7839 204.82 31.5703C205.102 31.3568 205.318 31.0495 205.469 30.6484C205.62 30.2474 205.695 29.7656 205.695 29.2031V29.1875C205.695 28.625 205.62 28.1458 205.469 27.75C205.318 27.349 205.099 27.0417 204.812 26.8281C204.531 26.6094 204.19 26.5 203.789 26.5C203.388 26.5 203.044 26.6094 202.758 26.8281C202.477 27.0417 202.26 27.349 202.109 27.75C201.958 28.1458 201.883 28.625 201.883 29.1875V29.2031C201.883 29.7708 201.956 30.2552 202.102 30.6562C202.253 31.0573 202.469 31.3646 202.75 31.5781C203.036 31.7865 203.383 31.8906 203.789 31.8906ZM213.711 33.6797C212.831 33.6797 212.073 33.5026 211.438 33.1484C210.802 32.7891 210.315 32.276 209.977 31.6094C209.638 30.9375 209.469 30.1354 209.469 29.2031V29.1875C209.469 28.2604 209.641 27.4635 209.984 26.7969C210.328 26.1302 210.815 25.6172 211.445 25.2578C212.081 24.8932 212.836 24.7109 213.711 24.7109C214.586 24.7109 215.339 24.8906 215.969 25.25C216.604 25.6094 217.094 26.125 217.438 26.7969C217.781 27.4635 217.953 28.2604 217.953 29.1875V29.2031C217.953 30.1354 217.784 30.9375 217.445 31.6094C217.107 32.276 216.62 32.7891 215.984 33.1484C215.354 33.5026 214.596 33.6797 213.711 33.6797ZM213.711 31.8906C214.117 31.8906 214.461 31.7839 214.742 31.5703C215.023 31.3568 215.24 31.0495 215.391 30.6484C215.542 30.2474 215.617 29.7656 215.617 29.2031V29.1875C215.617 28.625 215.542 28.1458 215.391 27.75C215.24 27.349 215.021 27.0417 214.734 26.8281C214.453 26.6094 214.112 26.5 213.711 26.5C213.31 26.5 212.966 26.6094 212.68 26.8281C212.398 27.0417 212.182 27.349 212.031 27.75C211.88 28.1458 211.805 28.625 211.805 29.1875V29.2031C211.805 29.7708 211.878 30.2552 212.023 30.6562C212.174 31.0573 212.391 31.3646 212.672 31.5781C212.958 31.7865 213.305 31.8906 213.711 31.8906ZM223.609 36.5234C222.812 36.5234 222.13 36.4193 221.562 36.2109C221 36.0078 220.557 35.7188 220.234 35.3438C219.911 34.974 219.719 34.5469 219.656 34.0625V34.0234H221.914L221.922 34.0547C221.984 34.3047 222.161 34.5078 222.453 34.6641C222.75 34.8203 223.151 34.8984 223.656 34.8984C224.266 34.8984 224.74 34.7604 225.078 34.4844C225.417 34.2135 225.586 33.8281 225.586 33.3281V31.7266H225.445C225.289 32.0286 225.083 32.2839 224.828 32.4922C224.578 32.7005 224.286 32.8594 223.953 32.9688C223.625 33.0729 223.263 33.125 222.867 33.125C222.148 33.125 221.526 32.9531 221 32.6094C220.479 32.2604 220.076 31.776 219.789 31.1562C219.508 30.5365 219.367 29.8203 219.367 29.0078V28.9922C219.367 28.1484 219.508 27.4089 219.789 26.7734C220.076 26.138 220.482 25.6432 221.008 25.2891C221.539 24.9349 222.172 24.7578 222.906 24.7578C223.302 24.7578 223.664 24.8203 223.992 24.9453C224.326 25.0703 224.617 25.2474 224.867 25.4766C225.117 25.7057 225.318 25.9818 225.469 26.3047H225.578V24.8984H227.859V33.2344C227.859 33.9062 227.685 34.487 227.336 34.9766C226.992 35.4714 226.503 35.8516 225.867 36.1172C225.232 36.388 224.479 36.5234 223.609 36.5234ZM223.641 31.375C224.052 31.375 224.404 31.276 224.695 31.0781C224.987 30.875 225.211 30.5964 225.367 30.2422C225.529 29.888 225.609 29.474 225.609 29V28.9844C225.609 28.5156 225.529 28.1016 225.367 27.7422C225.211 27.3828 224.987 27.1042 224.695 26.9062C224.404 26.7083 224.052 26.6094 223.641 26.6094C223.229 26.6094 222.88 26.7083 222.594 26.9062C222.307 27.1042 222.086 27.3828 221.93 27.7422C221.779 28.0964 221.703 28.5104 221.703 28.9844V29C221.703 29.4688 221.779 29.8828 221.93 30.2422C222.086 30.5964 222.307 30.875 222.594 31.0781C222.88 31.276 223.229 31.375 223.641 31.375ZM230.219 33.5V21.6094H232.5V33.5H230.219ZM238.641 33.6797C237.771 33.6797 237.021 33.5 236.391 33.1406C235.766 32.776 235.284 32.2604 234.945 31.5938C234.607 30.9271 234.438 30.1328 234.438 29.2109V29.2031C234.438 28.2917 234.604 27.5 234.938 26.8281C235.276 26.1562 235.753 25.6354 236.367 25.2656C236.987 24.8958 237.714 24.7109 238.547 24.7109C239.385 24.7109 240.109 24.8906 240.719 25.25C241.328 25.6094 241.797 26.112 242.125 26.7578C242.453 27.4036 242.617 28.1615 242.617 29.0312V29.7422H235.578V28.3125H241.523L240.453 29.6641V28.75C240.453 28.2344 240.372 27.8047 240.211 27.4609C240.055 27.1172 239.836 26.8594 239.555 26.6875C239.279 26.5104 238.956 26.4219 238.586 26.4219C238.221 26.4219 237.896 26.513 237.609 26.6953C237.328 26.8724 237.104 27.1354 236.938 27.4844C236.776 27.8281 236.695 28.25 236.695 28.75V29.6719C236.695 30.1562 236.776 30.5703 236.938 30.9141C237.099 31.2578 237.328 31.5208 237.625 31.7031C237.922 31.8854 238.276 31.9766 238.688 31.9766C239.021 31.9766 239.305 31.9271 239.539 31.8281C239.773 31.7292 239.961 31.6146 240.102 31.4844C240.247 31.349 240.346 31.2266 240.398 31.1172L240.422 31.0703H242.547L242.531 31.1484C242.464 31.4193 242.341 31.7031 242.164 32C241.987 32.2917 241.742 32.5651 241.43 32.8203C241.122 33.0755 240.737 33.2839 240.273 33.4453C239.815 33.6016 239.271 33.6797 238.641 33.6797Z" fill="#F2F2F2"/>
</svg>
