<svg width="36" height="37" viewBox="0 0 36 37" fill="none" xmlns="http://www.w3.org/2000/svg">
<path d="M28.3675 22.622L28.3695 22.6253C28.8349 23.3891 28.9163 24.2876 28.6081 25.1055C28.2956 25.9349 27.6533 26.5606 26.8258 26.8325L26.8216 26.8339C23.9913 27.7822 21.0119 28.25 18.0299 28.25C15.0479 28.25 12.0698 27.7822 9.24147 26.82L9.23996 26.8195C8.31439 26.5068 7.65278 25.8759 7.38098 25.1171L7.38101 25.1171L7.37885 25.1112C7.09079 24.3277 7.18135 23.4538 7.67785 22.6212C7.67819 22.6206 7.67854 22.62 7.67888 22.6195L9.19167 20.1181L9.19175 20.1182L9.19775 20.1079C9.40126 19.759 9.57222 19.2921 9.69177 18.8524C9.81117 18.4132 9.89991 17.9254 9.89991 17.525V13.73C9.89991 10.5486 11.7511 7.78606 14.4339 6.45151L14.6414 6.34829L14.7545 6.14602C15.4038 4.98475 16.6254 4.25 17.9849 4.25C19.3658 4.25 20.5557 4.96061 21.202 6.10404L21.3184 6.30994L21.5318 6.41183C24.2672 7.71767 26.1599 10.5062 26.1599 13.73V17.525C26.1599 17.9254 26.2487 18.4131 26.3678 18.8534C26.4875 19.2955 26.6575 19.7626 26.8576 20.1152L26.8625 20.1237L26.8675 20.132L28.3675 22.622Z" fill="#F2F2F2" stroke="#F2F2F2" stroke-width="1.5"/>
<path d="M15.1438 31.4215C15.2195 31.4289 15.2954 31.4359 15.3716 31.4423C16.2439 31.5187 17.1355 31.565 18.0305 31.565C18.9115 31.565 19.7891 31.5186 20.6472 31.442L20.6472 31.442L20.6516 31.4416C20.7161 31.4355 20.7875 31.4296 20.8634 31.4235C20.1716 32.2358 19.1436 32.75 18.0005 32.75C17.0121 32.75 16.0391 32.3478 15.3602 31.6442L15.3472 31.6307L15.3335 31.6178C15.2678 31.5563 15.2045 31.4906 15.1438 31.4215Z" fill="#F2F2F2" stroke="#F2F2F2" stroke-width="1.5"/>
<circle cx="26" cy="8.5" r="5" fill="#2EF536" stroke="black" stroke-width="2"/>
</svg>
