<svg width="398" height="56" viewBox="0 0 398 56" fill="none" xmlns="http://www.w3.org/2000/svg">
<rect x="0.5" y="0.5" width="397" height="55" rx="27.5" stroke="#F2F2F2"/>
<path d="M168.65 35.332C167.524 35.332 166.548 35.166 165.721 34.834C164.894 34.4954 164.243 34.0202 163.768 33.4082C163.299 32.7897 163.035 32.0605 162.977 31.2207L162.967 31.0645H165.799L165.809 31.1621C165.854 31.5137 166.004 31.8229 166.258 32.0898C166.512 32.3568 166.85 32.5651 167.273 32.7148C167.697 32.8646 168.178 32.9395 168.719 32.9395C169.253 32.9395 169.718 32.8613 170.115 32.7051C170.512 32.5488 170.822 32.334 171.043 32.0605C171.264 31.7806 171.375 31.4616 171.375 31.1035V31.0938C171.375 30.6315 171.186 30.2637 170.809 29.9902C170.438 29.7103 169.816 29.4792 168.943 29.2969L167.449 28.9941C166.004 28.7012 164.943 28.2161 164.266 27.5391C163.595 26.8555 163.26 25.9798 163.26 24.9121V24.9023C163.266 24.0365 163.497 23.278 163.953 22.627C164.415 21.9759 165.05 21.4714 165.857 21.1133C166.665 20.7552 167.589 20.5762 168.631 20.5762C169.725 20.5762 170.665 20.752 171.453 21.1035C172.241 21.4551 172.853 21.9401 173.289 22.5586C173.732 23.1706 173.982 23.877 174.041 24.6777L174.051 24.8047H171.277L171.258 24.6875C171.206 24.3424 171.066 24.043 170.838 23.7891C170.61 23.5352 170.307 23.3366 169.93 23.1934C169.559 23.0436 169.126 22.9688 168.631 22.9688C168.143 22.9688 167.716 23.0404 167.352 23.1836C166.993 23.3268 166.714 23.5286 166.512 23.7891C166.31 24.043 166.209 24.3457 166.209 24.6973V24.707C166.209 25.1562 166.395 25.5241 166.766 25.8105C167.137 26.097 167.736 26.3249 168.562 26.4941L170.047 26.7969C171.043 26.9987 171.854 27.2721 172.479 27.6172C173.11 27.9622 173.576 28.3952 173.875 28.916C174.174 29.4368 174.324 30.0651 174.324 30.8008V30.8105C174.324 31.735 174.096 32.5358 173.641 33.2129C173.185 33.89 172.531 34.4141 171.678 34.7852C170.831 35.1497 169.822 35.332 168.65 35.332ZM176.639 35V24.3164H179.49V35H176.639ZM178.064 22.7344C177.635 22.7344 177.264 22.5814 176.951 22.2754C176.639 21.9694 176.482 21.6048 176.482 21.1816C176.482 20.7454 176.639 20.3776 176.951 20.0781C177.264 19.7721 177.635 19.6191 178.064 19.6191C178.507 19.6191 178.882 19.7721 179.188 20.0781C179.5 20.3776 179.656 20.7454 179.656 21.1816C179.656 21.6048 179.5 21.9694 179.188 22.2754C178.882 22.5814 178.507 22.7344 178.064 22.7344ZM186.912 38.7402C185.929 38.7402 185.083 38.61 184.373 38.3496C183.663 38.0957 183.104 37.7376 182.693 37.2754C182.29 36.8197 182.046 36.2923 181.961 35.6934V35.6348H184.773L184.793 35.6836C184.878 35.9831 185.102 36.2272 185.467 36.416C185.838 36.6113 186.336 36.709 186.961 36.709C187.716 36.709 188.299 36.5365 188.709 36.1914C189.126 35.8529 189.334 35.3743 189.334 34.7559V32.8516H189.188C188.992 33.2227 188.738 33.5417 188.426 33.8086C188.113 34.069 187.749 34.2676 187.332 34.4043C186.915 34.541 186.46 34.6094 185.965 34.6094C185.066 34.6094 184.292 34.3945 183.641 33.9648C182.996 33.5352 182.498 32.9329 182.146 32.1582C181.795 31.3835 181.619 30.4785 181.619 29.4434V29.4336C181.619 28.3594 181.795 27.4284 182.146 26.6406C182.505 25.8464 183.009 25.2311 183.66 24.7949C184.318 24.3522 185.099 24.1309 186.004 24.1309C186.499 24.1309 186.951 24.209 187.361 24.3652C187.778 24.5215 188.143 24.7461 188.455 25.0391C188.768 25.3255 189.018 25.6738 189.207 26.084H189.324V24.3164H192.176V34.6777C192.176 35.5046 191.961 36.2207 191.531 36.8262C191.102 37.4382 190.493 37.9102 189.705 38.2422C188.924 38.5742 187.993 38.7402 186.912 38.7402ZM186.932 32.4414C187.433 32.4414 187.863 32.3177 188.221 32.0703C188.585 31.8229 188.865 31.4746 189.061 31.0254C189.256 30.5762 189.354 30.0553 189.354 29.4629V29.4434C189.354 28.8444 189.256 28.3203 189.061 27.8711C188.865 27.4219 188.585 27.0736 188.221 26.8262C187.863 26.5788 187.433 26.4551 186.932 26.4551C186.43 26.4551 186.001 26.5788 185.643 26.8262C185.285 27.0736 185.011 27.4219 184.822 27.8711C184.633 28.3203 184.539 28.8444 184.539 29.4434V29.4531C184.539 30.0521 184.633 30.5762 184.822 31.0254C185.011 31.4746 185.285 31.8229 185.643 32.0703C186.001 32.3177 186.43 32.4414 186.932 32.4414ZM194.793 35V24.3164H197.645V25.9863H197.791C198.045 25.4004 198.432 24.9382 198.953 24.5996C199.48 24.2611 200.132 24.0918 200.906 24.0918C202.091 24.0918 202.996 24.4401 203.621 25.1367C204.253 25.8333 204.568 26.8197 204.568 28.0957V35H201.717V28.7305C201.717 27.9883 201.554 27.4251 201.229 27.041C200.91 26.6504 200.418 26.4551 199.754 26.4551C199.318 26.4551 198.94 26.5527 198.621 26.748C198.309 26.9434 198.068 27.2201 197.898 27.5781C197.729 27.9297 197.645 28.3464 197.645 28.8281V35H194.793ZM215.535 35.2246C214.741 35.2246 214.074 35.0684 213.533 34.7559C212.993 34.4434 212.583 33.9876 212.303 33.3887C212.029 32.7897 211.893 32.0671 211.893 31.2207V24.3164H214.744V30.5859C214.744 31.3281 214.897 31.8945 215.203 32.2852C215.509 32.6693 215.997 32.8613 216.668 32.8613C217.013 32.8613 217.319 32.806 217.586 32.6953C217.853 32.5781 218.077 32.4154 218.26 32.207C218.442 31.9987 218.579 31.7513 218.67 31.4648C218.768 31.1719 218.816 30.8464 218.816 30.4883V24.3164H221.668V35H218.816V33.3301H218.67C218.501 33.7207 218.27 34.0592 217.977 34.3457C217.684 34.6257 217.332 34.8438 216.922 35C216.512 35.1497 216.049 35.2246 215.535 35.2246ZM224.285 38.5254V24.3164H227.137V26.0156H227.283C227.472 25.6185 227.719 25.2832 228.025 25.0098C228.338 24.7298 228.702 24.515 229.119 24.3652C229.536 24.209 229.995 24.1309 230.496 24.1309C231.395 24.1309 232.166 24.3555 232.811 24.8047C233.462 25.2474 233.963 25.8789 234.314 26.6992C234.666 27.5195 234.842 28.5026 234.842 29.6484V29.668C234.842 30.8138 234.666 31.8001 234.314 32.627C233.969 33.4473 233.475 34.0788 232.83 34.5215C232.186 34.9642 231.411 35.1855 230.506 35.1855C230.011 35.1855 229.552 35.1074 229.129 34.9512C228.712 34.7949 228.344 34.5736 228.025 34.2871C227.713 34.0007 227.465 33.6589 227.283 33.2617H227.137V38.5254H224.285ZM229.529 32.8223C230.031 32.8223 230.46 32.6953 230.818 32.4414C231.176 32.181 231.453 31.8164 231.648 31.3477C231.844 30.8724 231.941 30.3125 231.941 29.668V29.6484C231.941 28.9909 231.844 28.4277 231.648 27.959C231.453 27.4902 231.176 27.1289 230.818 26.875C230.46 26.6211 230.031 26.4941 229.529 26.4941C229.041 26.4941 228.615 26.6211 228.25 26.875C227.885 27.1289 227.602 27.4902 227.4 27.959C227.205 28.4277 227.107 28.9909 227.107 29.6484V29.668C227.107 30.3125 227.208 30.8724 227.41 31.3477C227.612 31.8164 227.892 32.181 228.25 32.4414C228.615 32.6953 229.041 32.8223 229.529 32.8223Z" fill="#F2F2F2"/>
</svg>
