<svg width="406" height="64" viewBox="0 0 406 64" fill="none" xmlns="http://www.w3.org/2000/svg">
<g filter="url(#filter0_d_1701_11178)">
<rect x="4" width="398" height="56" rx="28" fill="#FCC434" shape-rendering="crispEdges"/>
<path d="M176.15 35.332C175.024 35.332 174.048 35.166 173.221 34.834C172.394 34.4954 171.743 34.0202 171.268 33.4082C170.799 32.7897 170.535 32.0605 170.477 31.2207L170.467 31.0645H173.299L173.309 31.1621C173.354 31.5137 173.504 31.8229 173.758 32.0898C174.012 32.3568 174.35 32.5651 174.773 32.7148C175.197 32.8646 175.678 32.9395 176.219 32.9395C176.753 32.9395 177.218 32.8613 177.615 32.7051C178.012 32.5488 178.322 32.334 178.543 32.0605C178.764 31.7806 178.875 31.4616 178.875 31.1035V31.0938C178.875 30.6315 178.686 30.2637 178.309 29.9902C177.938 29.7103 177.316 29.4792 176.443 29.2969L174.949 28.9941C173.504 28.7012 172.443 28.2161 171.766 27.5391C171.095 26.8555 170.76 25.9798 170.76 24.9121V24.9023C170.766 24.0365 170.997 23.278 171.453 22.627C171.915 21.9759 172.55 21.4714 173.357 21.1133C174.165 20.7552 175.089 20.5762 176.131 20.5762C177.225 20.5762 178.165 20.752 178.953 21.1035C179.741 21.4551 180.353 21.9401 180.789 22.5586C181.232 23.1706 181.482 23.877 181.541 24.6777L181.551 24.8047H178.777L178.758 24.6875C178.706 24.3424 178.566 24.043 178.338 23.7891C178.11 23.5352 177.807 23.3366 177.43 23.1934C177.059 23.0436 176.626 22.9688 176.131 22.9688C175.643 22.9688 175.216 23.0404 174.852 23.1836C174.493 23.3268 174.214 23.5286 174.012 23.7891C173.81 24.043 173.709 24.3457 173.709 24.6973V24.707C173.709 25.1562 173.895 25.5241 174.266 25.8105C174.637 26.097 175.236 26.3249 176.062 26.4941L177.547 26.7969C178.543 26.9987 179.354 27.2721 179.979 27.6172C180.61 27.9622 181.076 28.3952 181.375 28.916C181.674 29.4368 181.824 30.0651 181.824 30.8008V30.8105C181.824 31.735 181.596 32.5358 181.141 33.2129C180.685 33.89 180.031 34.4141 179.178 34.7852C178.331 35.1497 177.322 35.332 176.15 35.332ZM184.139 35V24.3164H186.99V35H184.139ZM185.564 22.7344C185.135 22.7344 184.764 22.5814 184.451 22.2754C184.139 21.9694 183.982 21.6048 183.982 21.1816C183.982 20.7454 184.139 20.3776 184.451 20.0781C184.764 19.7721 185.135 19.6191 185.564 19.6191C186.007 19.6191 186.382 19.7721 186.688 20.0781C187 20.3776 187.156 20.7454 187.156 21.1816C187.156 21.6048 187 21.9694 186.688 22.2754C186.382 22.5814 186.007 22.7344 185.564 22.7344ZM194.412 38.7402C193.429 38.7402 192.583 38.61 191.873 38.3496C191.163 38.0957 190.604 37.7376 190.193 37.2754C189.79 36.8197 189.546 36.2923 189.461 35.6934V35.6348H192.273L192.293 35.6836C192.378 35.9831 192.602 36.2272 192.967 36.416C193.338 36.6113 193.836 36.709 194.461 36.709C195.216 36.709 195.799 36.5365 196.209 36.1914C196.626 35.8529 196.834 35.3743 196.834 34.7559V32.8516H196.688C196.492 33.2227 196.238 33.5417 195.926 33.8086C195.613 34.069 195.249 34.2676 194.832 34.4043C194.415 34.541 193.96 34.6094 193.465 34.6094C192.566 34.6094 191.792 34.3945 191.141 33.9648C190.496 33.5352 189.998 32.9329 189.646 32.1582C189.295 31.3835 189.119 30.4785 189.119 29.4434V29.4336C189.119 28.3594 189.295 27.4284 189.646 26.6406C190.005 25.8464 190.509 25.2311 191.16 24.7949C191.818 24.3522 192.599 24.1309 193.504 24.1309C193.999 24.1309 194.451 24.209 194.861 24.3652C195.278 24.5215 195.643 24.7461 195.955 25.0391C196.268 25.3255 196.518 25.6738 196.707 26.084H196.824V24.3164H199.676V34.6777C199.676 35.5046 199.461 36.2207 199.031 36.8262C198.602 37.4382 197.993 37.9102 197.205 38.2422C196.424 38.5742 195.493 38.7402 194.412 38.7402ZM194.432 32.4414C194.933 32.4414 195.363 32.3177 195.721 32.0703C196.085 31.8229 196.365 31.4746 196.561 31.0254C196.756 30.5762 196.854 30.0553 196.854 29.4629V29.4434C196.854 28.8444 196.756 28.3203 196.561 27.8711C196.365 27.4219 196.085 27.0736 195.721 26.8262C195.363 26.5788 194.933 26.4551 194.432 26.4551C193.93 26.4551 193.501 26.5788 193.143 26.8262C192.785 27.0736 192.511 27.4219 192.322 27.8711C192.133 28.3203 192.039 28.8444 192.039 29.4434V29.4531C192.039 30.0521 192.133 30.5762 192.322 31.0254C192.511 31.4746 192.785 31.8229 193.143 32.0703C193.501 32.3177 193.93 32.4414 194.432 32.4414ZM202.293 35V24.3164H205.145V25.9863H205.291C205.545 25.4004 205.932 24.9382 206.453 24.5996C206.98 24.2611 207.632 24.0918 208.406 24.0918C209.591 24.0918 210.496 24.4401 211.121 25.1367C211.753 25.8333 212.068 26.8197 212.068 28.0957V35H209.217V28.7305C209.217 27.9883 209.054 27.4251 208.729 27.041C208.41 26.6504 207.918 26.4551 207.254 26.4551C206.818 26.4551 206.44 26.5527 206.121 26.748C205.809 26.9434 205.568 27.2201 205.398 27.5781C205.229 27.9297 205.145 28.3464 205.145 28.8281V35H202.293ZM219.51 35V24.3164H222.361V35H219.51ZM220.936 22.7344C220.506 22.7344 220.135 22.5814 219.822 22.2754C219.51 21.9694 219.354 21.6048 219.354 21.1816C219.354 20.7454 219.51 20.3776 219.822 20.0781C220.135 19.7721 220.506 19.6191 220.936 19.6191C221.378 19.6191 221.753 19.7721 222.059 20.0781C222.371 20.3776 222.527 20.7454 222.527 21.1816C222.527 21.6048 222.371 21.9694 222.059 22.2754C221.753 22.5814 221.378 22.7344 220.936 22.7344ZM225.008 35V24.3164H227.859V25.9863H228.006C228.26 25.4004 228.647 24.9382 229.168 24.5996C229.695 24.2611 230.346 24.0918 231.121 24.0918C232.306 24.0918 233.211 24.4401 233.836 25.1367C234.467 25.8333 234.783 26.8197 234.783 28.0957V35H231.932V28.7305C231.932 27.9883 231.769 27.4251 231.443 27.041C231.124 26.6504 230.633 26.4551 229.969 26.4551C229.533 26.4551 229.155 26.5527 228.836 26.748C228.523 26.9434 228.283 27.2201 228.113 27.5781C227.944 27.9297 227.859 28.3464 227.859 28.8281V35H225.008Z" fill="black"/>
</g>
<defs>
<filter id="filter0_d_1701_11178" x="0" y="0" width="406" height="64" filterUnits="userSpaceOnUse" color-interpolation-filters="sRGB">
<feFlood flood-opacity="0" result="BackgroundImageFix"/>
<feColorMatrix in="SourceAlpha" type="matrix" values="0 0 0 0 0 0 0 0 0 0 0 0 0 0 0 0 0 0 127 0" result="hardAlpha"/>
<feOffset dy="4"/>
<feGaussianBlur stdDeviation="2"/>
<feComposite in2="hardAlpha" operator="out"/>
<feColorMatrix type="matrix" values="0 0 0 0 0 0 0 0 0 0 0 0 0 0 0 0 0 0 0.25 0"/>
<feBlend mode="normal" in2="BackgroundImageFix" result="effect1_dropShadow_1701_11178"/>
<feBlend mode="normal" in="SourceGraphic" in2="effect1_dropShadow_1701_11178" result="shape"/>
</filter>
</defs>
</svg>
