<svg width="97" height="36" viewBox="0 0 97 36" fill="none" xmlns="http://www.w3.org/2000/svg">
<rect x="0.5" y="0.5" width="96" height="35" rx="17.5" stroke="#E6E6E6"/>
<path d="M18.5 12.1667H28.5M23.5 10.5V12.1667M24.3735 20.0833C23.1007 18.7648 22.0673 17.2137 21.3432 15.5M26.4167 23H32.25M25.1667 25.5L29.3333 17.1667L33.5 25.5M26.6259 12.1667C25.8192 16.9752 22.7247 21.0079 18.5 23.1075" stroke="#E6E6E6" stroke-width="1.33333" stroke-linecap="round" stroke-linejoin="round"/>
<path d="M41.0781 22H46.3164V21.0508H42.1328V18.1445H46.0996V17.207H42.1328V14.4941H46.3164V13.5449H41.0781V22ZM48.0977 22H49.1172V18.2617C49.1172 17.8906 49.1836 17.5723 49.3164 17.3066C49.4531 17.041 49.6445 16.8359 49.8906 16.6914C50.1367 16.5469 50.4277 16.4746 50.7637 16.4746C51.2676 16.4746 51.6387 16.6133 51.877 16.8906C52.1191 17.1641 52.2402 17.5859 52.2402 18.1562V22H53.2598V17.9102C53.2598 17.1602 53.0684 16.584 52.6855 16.1816C52.3066 15.7754 51.7617 15.5723 51.0508 15.5723C50.5859 15.5723 50.2031 15.666 49.9023 15.8535C49.6016 16.0371 49.3711 16.2969 49.2109 16.6328H49.1172V15.6836H48.0977V22ZM57.707 24.2266C58.2812 24.2266 58.7793 24.1309 59.2012 23.9395C59.623 23.752 59.9473 23.4844 60.1738 23.1367C60.4043 22.7891 60.5195 22.3809 60.5195 21.9121V15.6836H59.5V16.7266H59.4297C59.3008 16.4883 59.1387 16.2832 58.9434 16.1113C58.752 15.9395 58.5312 15.8066 58.2812 15.7129C58.0312 15.6191 57.7578 15.5723 57.4609 15.5723C56.9102 15.5723 56.4355 15.7051 56.0371 15.9707C55.6387 16.2324 55.3301 16.5938 55.1113 17.0547C54.8965 17.5117 54.7891 18.0352 54.7891 18.625V18.6367C54.7891 19.2266 54.8965 19.75 55.1113 20.207C55.3262 20.6641 55.6309 21.0234 56.0254 21.2852C56.4238 21.543 56.8945 21.6719 57.4375 21.6719C57.7266 21.6719 57.9961 21.6309 58.2461 21.5488C58.4961 21.4629 58.7207 21.3379 58.9199 21.1738C59.1191 21.0098 59.2852 20.8125 59.418 20.582H59.5117V21.8594C59.5117 22.3242 59.3516 22.6836 59.0312 22.9375C58.7148 23.1953 58.2734 23.3242 57.707 23.3242C57.2539 23.3242 56.8906 23.2461 56.6172 23.0898C56.3438 22.9375 56.1797 22.7422 56.125 22.5039L56.1191 22.498H55.0645L55.0527 22.5039C55.1074 22.8477 55.2461 23.1484 55.4688 23.4062C55.6953 23.668 55.998 23.8691 56.377 24.0098C56.7559 24.1543 57.1992 24.2266 57.707 24.2266ZM57.6602 20.7695C57.2695 20.7695 56.9375 20.6797 56.6641 20.5C56.3945 20.3164 56.1875 20.0645 56.043 19.7441C55.9023 19.4238 55.832 19.0547 55.832 18.6367V18.625C55.832 18.207 55.9023 17.8359 56.043 17.5117C56.1875 17.1875 56.3945 16.9336 56.6641 16.75C56.9375 16.5664 57.2695 16.4746 57.6602 16.4746C58.0508 16.4746 58.3848 16.5664 58.6621 16.75C58.9434 16.9336 59.1582 17.1875 59.3066 17.5117C59.459 17.8359 59.5352 18.207 59.5352 18.625V18.6367C59.5352 19.0547 59.459 19.4238 59.3066 19.7441C59.1582 20.0645 58.9434 20.3164 58.6621 20.5C58.3848 20.6797 58.0508 20.7695 57.6602 20.7695ZM62.4766 22H63.4961V13.1758H62.4766V22ZM65.4766 22H66.4961V15.6836H65.4766V22ZM65.9922 14.4648C66.1875 14.4648 66.3535 14.3965 66.4902 14.2598C66.627 14.1191 66.6953 13.9531 66.6953 13.7617C66.6953 13.5664 66.627 13.4004 66.4902 13.2637C66.3535 13.127 66.1875 13.0586 65.9922 13.0586C65.8008 13.0586 65.6348 13.127 65.4941 13.2637C65.3574 13.4004 65.2891 13.5664 65.2891 13.7617C65.2891 13.9531 65.3574 14.1191 65.4941 14.2598C65.6348 14.3965 65.8008 14.4648 65.9922 14.4648ZM70.5859 22.1113C71.0664 22.1113 71.4961 22.0312 71.875 21.8711C72.2578 21.7109 72.5605 21.4883 72.7832 21.2031C73.0059 20.9141 73.1172 20.582 73.1172 20.207V20.1953C73.1172 19.7422 72.9707 19.3809 72.6777 19.1113C72.3887 18.8418 71.9473 18.6348 71.3535 18.4902L70.3809 18.2559C70.1348 18.1934 69.9336 18.1211 69.7773 18.0391C69.6211 17.957 69.5059 17.8613 69.4316 17.752C69.3574 17.6426 69.3203 17.5176 69.3203 17.377V17.3652C69.3203 17.1777 69.377 17.0137 69.4902 16.873C69.6035 16.7324 69.7578 16.623 69.9531 16.5449C70.1484 16.4629 70.3711 16.4219 70.6211 16.4219C71.0039 16.4219 71.3145 16.5 71.5527 16.6562C71.791 16.8125 71.9434 17.0156 72.0098 17.2656H73.0117C72.9648 16.9219 72.8359 16.623 72.625 16.3691C72.418 16.1152 72.1426 15.9199 71.7988 15.7832C71.459 15.6426 71.0684 15.5723 70.627 15.5723C70.1816 15.5723 69.7812 15.6523 69.4258 15.8125C69.0703 15.9727 68.7891 16.1914 68.582 16.4688C68.3789 16.7461 68.2773 17.0605 68.2773 17.4121V17.418C68.2773 17.7188 68.3379 17.9805 68.459 18.2031C68.5801 18.4219 68.7676 18.6074 69.0215 18.7598C69.2754 18.9082 69.5996 19.0293 69.9941 19.123L70.9727 19.3574C71.3633 19.4512 71.6445 19.5742 71.8164 19.7266C71.9883 19.875 72.0742 20.0566 72.0742 20.2715V20.2832C72.0742 20.4746 72.0117 20.6445 71.8867 20.793C71.7617 20.9375 71.5898 21.0527 71.3711 21.1387C71.1562 21.2207 70.9062 21.2617 70.6211 21.2617C70.2188 21.2617 69.8926 21.1816 69.6426 21.0215C69.3926 20.8613 69.2246 20.6504 69.1387 20.3887H68.0957C68.1348 20.7363 68.2617 21.0391 68.4766 21.2969C68.6953 21.5547 68.9844 21.7559 69.3438 21.9004C69.7031 22.041 70.1172 22.1113 70.5859 22.1113ZM74.7578 22H75.7773V18.2617C75.7773 17.8906 75.8438 17.5723 75.9766 17.3066C76.1133 17.041 76.3047 16.8359 76.5508 16.6914C76.7969 16.5469 77.0879 16.4746 77.4238 16.4746C77.9277 16.4746 78.2988 16.6133 78.5371 16.8906C78.7793 17.1641 78.9004 17.5859 78.9004 18.1562V22H79.9199V17.9102C79.9199 17.4102 79.834 16.9863 79.6621 16.6387C79.4902 16.291 79.2402 16.0273 78.9121 15.8477C78.584 15.6641 78.1836 15.5723 77.7109 15.5723C77.2461 15.5723 76.8633 15.666 76.5625 15.8535C76.2617 16.0371 76.0312 16.2969 75.8711 16.6328H75.7773V13.1758H74.7578V22Z" fill="#E6E6E6"/>
</svg>
